<svg width="1200" height="360" viewBox="0 0 1200 360" fill="none" xmlns="http://www.w3.org/2000/svg">
  <rect width="1200" height="360" rx="18" fill="#0B0F14"/>
  <path d="M0 72H1200M0 144H1200M0 216H1200M0 288H1200M120 0V360M240 0V360M360 0V360M480 0V360M600 0V360M720 0V360M840 0V360M960 0V360M1080 0V360" stroke="#151B23"/>
  <circle cx="1024" cy="86" r="196" stroke="#FF6B35" stroke-opacity=".22" stroke-width="2"/>
  <circle cx="930" cy="326" r="156" stroke="#A8F0C6" stroke-opacity=".12" stroke-width="2"/>

  <rect x="72" y="58" width="12" height="12" rx="6" fill="#A8F0C6"/>
  <text x="98" y="69" fill="#A8B1BC" font-family="Consolas, monospace" font-size="13" font-weight="700" letter-spacing="2">LEAD BACKEND ENGINEER</text>

  <text x="72" y="160" fill="#FFFDF8" font-family="Arial, sans-serif" font-size="58" font-weight="700" letter-spacing="-2">Tauqeer Ahmed</text>
  <text x="72" y="211" fill="#FF6B35" font-family="Arial, sans-serif" font-size="29" font-weight="700">I make complex backend systems easier to trust.</text>
  <text x="74" y="254" fill="#98A2AE" font-family="Arial, sans-serif" font-size="17">Java 17  /  Spring Boot  /  Microservices  /  Kafka  /  Kubernetes</text>

  <rect x="72" y="292" width="176" height="34" rx="3" fill="#FF6B35"/>
  <text x="160" y="314" text-anchor="middle" fill="#0B0F14" font-family="Arial, sans-serif" font-size="12" font-weight="700">7 YEARS EXPERIENCE</text>
  <rect x="260" y="292" width="145" height="34" rx="3" fill="#171D25" stroke="#303943"/>
  <text x="332" y="314" text-anchor="middle" fill="#CDD4DB" font-family="Arial, sans-serif" font-size="12" font-weight="700">4 DOMAINS</text>
  <rect x="417" y="292" width="205" height="34" rx="3" fill="#171D25" stroke="#303943"/>
  <text x="520" y="314" text-anchor="middle" fill="#CDD4DB" font-family="Arial, sans-serif" font-size="12" font-weight="700">BANGALORE, INDIA</text>

  <g transform="translate(876 116)">
    <rect width="246" height="154" rx="8" fill="#10151C" stroke="#343D47"/>
    <text x="18" y="26" fill="#697581" font-family="Consolas, monospace" font-size="10">engineering.signature</text>
    <circle cx="218" cy="22" r="4" fill="#A8F0C6"/>
    <rect x="18" y="44" width="210" height="42" rx="3" fill="#161C24" stroke="#FF6B35"/>
    <text x="34" y="62" fill="#FF6B35" font-family="Consolas, monospace" font-size="9">01</text>
    <text x="60" y="62" fill="#FFFDF8" font-family="Arial, sans-serif" font-size="11" font-weight="700">Clarity before code</text>
    <text x="60" y="76" fill="#74808B" font-family="Arial, sans-serif" font-size="9">Boundaries and trade-offs</text>
    <rect x="18" y="98" width="100" height="38" rx="3" fill="#161C24" stroke="#343D47"/>
    <rect x="128" y="98" width="100" height="38" rx="3" fill="#161C24" stroke="#343D47"/>
    <text x="30" y="121" fill="#CDD4DB" font-family="Arial, sans-serif" font-size="9">Design failure</text>
    <text x="141" y="121" fill="#CDD4DB" font-family="Arial, sans-serif" font-size="9">Observe reality</text>
  </g>
</svg>
